<svg width="21" height="18" viewBox="0 0 21 18" fill="none" xmlns="http://www.w3.org/2000/svg">
<path d="M18.5003 9.57559L11.0003 17.0036L3.5003 9.57559C3.00561 9.09421 2.61594 8.51561 2.35585 7.87623C2.09575 7.23685 1.97086 6.55055 1.98904 5.86053C2.00721 5.17051 2.16806 4.49173 2.46146 3.86693C2.75485 3.24213 3.17444 2.68485 3.69379 2.23017C4.21314 1.7755 4.82101 1.43328 5.47911 1.22508C6.13722 1.01687 6.83131 0.947179 7.51767 1.0204C8.20403 1.09361 8.8678 1.30815 9.46718 1.6505C10.0666 1.99285 10.5885 2.4556 11.0003 3.00959C11.4138 2.45962 11.9364 2.00092 12.5354 1.6622C13.1344 1.32348 13.7968 1.11204 14.4812 1.04111C15.1657 0.970185 15.8574 1.04129 16.5131 1.24999C17.1688 1.45868 17.7743 1.80047 18.2919 2.25396C18.8094 2.70745 19.2277 3.26288 19.5207 3.88549C19.8137 4.5081 19.975 5.18448 19.9946 5.8723C20.0142 6.56013 19.8916 7.24459 19.6344 7.88284C19.3773 8.5211 18.9912 9.09942 18.5003 9.58159M11.0002 3.0036L7.70722 6.2966C7.51974 6.48413 7.41443 6.73844 7.41443 7.0036C7.41443 7.26877 7.51974 7.52307 7.70722 7.7106L8.25022 8.2536C8.94022 8.9436 10.0602 8.9436 10.7502 8.2536L11.7502 7.2536C12.347 6.65687 13.1563 6.32163 14.0002 6.32163C14.8441 6.32163 15.6535 6.65687 16.2502 7.2536L18.5002 9.5036M11.5002 12.5036L13.5002 14.5036M14.0002 10.0036L16.0002 12.0036" stroke="#070707" stroke-width="2" stroke-linecap="round" stroke-linejoin="round"/>
</svg>
