<svg width="200" height="200" viewBox="0 0 200 200" fill="none" xmlns="http://www.w3.org/2000/svg">
<path d="M25 58.3307C25 53.9105 26.7559 49.6712 29.8816 46.5456C33.0072 43.42 37.2464 41.6641 41.6667 41.6641H158.333C162.754 41.6641 166.993 43.42 170.118 46.5456C173.244 49.6712 175 53.9105 175 58.3307M25 58.3307V141.664C25 146.084 26.7559 150.324 29.8816 153.449C33.0072 156.575 37.2464 158.331 41.6667 158.331H158.333C162.754 158.331 166.993 156.575 170.118 153.449C173.244 150.324 175 146.084 175 141.664V58.3307M25 58.3307L100 108.331L175 58.3307" stroke="white" stroke-width="20" stroke-linecap="round" stroke-linejoin="round"/>
</svg>
