<svg width="21" height="20" viewBox="0 0 21 20" fill="none" xmlns="http://www.w3.org/2000/svg">
<path d="M13.5 5C14.0304 5 14.5391 5.21071 14.9142 5.58579C15.2893 5.96086 15.5 6.46957 15.5 7M13.5 1C15.0913 1 16.6174 1.63214 17.7426 2.75736C18.8679 3.88258 19.5 5.4087 19.5 7M3.5 2H7.5L9.5 7L7 8.5C8.07096 10.6715 9.82847 12.429 12 13.5L13.5 11L18.5 13V17C18.5 17.5304 18.2893 18.0391 17.9142 18.4142C17.5391 18.7893 17.0304 19 16.5 19C12.5993 18.763 8.92015 17.1065 6.15683 14.3432C3.3935 11.5798 1.73705 7.90074 1.5 4C1.5 3.46957 1.71071 2.96086 2.08579 2.58579C2.46086 2.21071 2.96957 2 3.5 2Z" stroke="white" stroke-width="2" stroke-linecap="round" stroke-linejoin="round"/>
</svg>
