<svg width="19" height="21" viewBox="0 0 19 21" fill="none" xmlns="http://www.w3.org/2000/svg">
<path d="M6.5 8.99971C6.5 9.79536 6.81607 10.5584 7.37868 11.121C7.94129 11.6836 8.70435 11.9997 9.5 11.9997C10.2956 11.9997 11.0587 11.6836 11.6213 11.121C12.1839 10.5584 12.5 9.79536 12.5 8.99971C12.5 8.20406 12.1839 7.441 11.6213 6.87839C11.0587 6.31578 10.2956 5.99971 9.5 5.99971C8.70435 5.99971 7.94129 6.31578 7.37868 6.87839C6.81607 7.441 6.5 8.20406 6.5 8.99971Z" stroke="white" stroke-width="2" stroke-linecap="round" stroke-linejoin="round"/>
<path d="M15.157 14.6567L10.914 18.8997C10.539 19.2743 10.0306 19.4848 9.5005 19.4848C8.97042 19.4848 8.46202 19.2743 8.087 18.8997L3.843 14.6567C2.72422 13.5379 1.96234 12.1124 1.65369 10.5606C1.34504 9.00873 1.50349 7.40022 2.10901 5.93844C2.71452 4.47665 3.7399 3.22725 5.05548 2.34821C6.37107 1.46918 7.91777 1 9.5 1C11.0822 1 12.6289 1.46918 13.9445 2.34821C15.2601 3.22725 16.2855 4.47665 16.891 5.93844C17.4965 7.40022 17.655 9.00873 17.3463 10.5606C17.0377 12.1124 16.2758 13.5379 15.157 14.6567Z" stroke="white" stroke-width="2" stroke-linecap="round" stroke-linejoin="round"/>
</svg>
