<svg width="20" height="20" viewBox="0 0 20 20" fill="none" xmlns="http://www.w3.org/2000/svg">
<path d="M7 9.99656L9 11.9966L13 7.99655M2.99997 5.19655C2.99997 4.61308 3.23176 4.0535 3.64434 3.64092C4.05692 3.22834 4.6165 2.99655 5.19997 2.99655H6.19997C6.78087 2.99622 7.33806 2.76616 7.74997 2.35655L8.44997 1.65655C8.65442 1.45096 8.89749 1.2878 9.16521 1.17646C9.43294 1.06513 9.72003 1.00781 10.01 1.00781C10.2999 1.00781 10.587 1.06513 10.8547 1.17646C11.1225 1.2878 11.3655 1.45096 11.57 1.65655L12.27 2.35655C12.682 2.76655 13.24 2.99655 13.82 2.99655H14.82C15.4034 2.99655 15.963 3.22834 16.3756 3.64092C16.7882 4.0535 17.02 4.61308 17.02 5.19655V6.19655C17.02 6.77655 17.25 7.33455 17.66 7.74655L18.36 8.44655C18.5656 8.651 18.7287 8.89408 18.8401 9.1618C18.9514 9.42952 19.0087 9.71661 19.0087 10.0066C19.0087 10.2965 18.9514 10.5836 18.8401 10.8513C18.7287 11.119 18.5656 11.3621 18.36 11.5666L17.66 12.2666C17.2504 12.6785 17.0203 13.2357 17.02 13.8166V14.8166C17.02 15.4 16.7882 15.9596 16.3756 16.3722C15.963 16.7848 15.4034 17.0166 14.82 17.0166H13.82C13.2391 17.0169 12.6819 17.247 12.27 17.6566L11.57 18.3566C11.3655 18.5622 11.1225 18.7253 10.8547 18.8366C10.587 18.948 10.2999 19.0053 10.01 19.0053C9.72003 19.0053 9.43294 18.948 9.16521 18.8366C8.89749 18.7253 8.65442 18.5622 8.44997 18.3566L7.74997 17.6566C7.33806 17.247 6.78087 17.0169 6.19997 17.0166H5.19997C4.6165 17.0166 4.05692 16.7848 3.64434 16.3722C3.23176 15.9596 2.99997 15.4 2.99997 14.8166V13.8166C2.99964 13.2357 2.76957 12.6785 2.35997 12.2666L1.65997 11.5666C1.45437 11.3621 1.29121 11.119 1.17988 10.8513C1.06855 10.5836 1.01123 10.2965 1.01123 10.0066C1.01123 9.71661 1.06855 9.42952 1.17988 9.1618C1.29121 8.89408 1.45437 8.651 1.65997 8.44655L2.35997 7.74655C2.76957 7.33464 2.99964 6.77745 2.99997 6.19655V5.19655Z" stroke="#070707" stroke-width="2" stroke-linecap="round" stroke-linejoin="round"/>
</svg>
