<svg width="22" height="21" viewBox="0 0 22 21" fill="none" xmlns="http://www.w3.org/2000/svg">
<path d="M19.4845 10.5281C19.5916 8.70593 19.1421 6.89425 18.1957 5.33345C17.2492 3.77266 15.8506 2.53654 14.1853 1.78911C12.52 1.04169 10.6668 0.818284 8.87159 1.14855C7.07638 1.47882 5.42403 2.34714 4.13379 3.6383C2.84354 4.92947 1.97639 6.58243 1.6474 8.37787C1.3184 10.1733 1.54312 12.0263 2.29173 13.6911C3.04034 15.3559 4.27745 16.7536 5.83892 17.699C7.40038 18.6443 9.21239 19.0925 11.0345 18.9841M14.4995 17.0001H20.4995M17.4995 14.0001V20.0001M7.49951 8.00012H7.50951M13.4995 8.00012H13.5095M7.99951 13.0001C8.65751 13.6401 9.55951 14.0001 10.4995 14.0001C11.4395 14.0001 12.3415 13.6401 12.9995 13.0001" stroke="white" stroke-width="2" stroke-linecap="round" stroke-linejoin="round"/>
</svg>
