<svg width="21" height="20" viewBox="0 0 21 20" fill="none" xmlns="http://www.w3.org/2000/svg">
<path d="M7.50049 10.0005L9.50049 12.0005L13.5005 8.00046M3.50046 5.20046C3.50046 4.61698 3.73225 4.05741 4.14483 3.64483C4.55741 3.23225 5.11698 3.00046 5.70046 3.00046H6.70046C7.28136 3.00013 7.83855 2.77006 8.25046 2.36046L8.95046 1.66046C9.15491 1.45486 9.39798 1.2917 9.6657 1.18037C9.93342 1.06903 10.2205 1.01172 10.5105 1.01172C10.8004 1.01172 11.0875 1.06903 11.3552 1.18037C11.6229 1.2917 11.866 1.45486 12.0705 1.66046L12.7705 2.36046C13.1825 2.77046 13.7405 3.00046 14.3205 3.00046H15.3205C15.9039 3.00046 16.4635 3.23225 16.8761 3.64483C17.2887 4.05741 17.5205 4.61698 17.5205 5.20046V6.20046C17.5205 6.78046 17.7505 7.33846 18.1605 7.75046L18.8605 8.45046C19.0661 8.65491 19.2292 8.89798 19.3406 9.1657C19.4519 9.43342 19.5092 9.72051 19.5092 10.0105C19.5092 10.3004 19.4519 10.5875 19.3406 10.8552C19.2292 11.1229 19.0661 11.366 18.8605 11.5705L18.1605 12.2705C17.7509 12.6824 17.5208 13.2396 17.5205 13.8205V14.8205C17.5205 15.4039 17.2887 15.9635 16.8761 16.3761C16.4635 16.7887 15.9039 17.0205 15.3205 17.0205H14.3205C13.7396 17.0208 13.1824 17.2509 12.7705 17.6605L12.0705 18.3605C11.866 18.5661 11.6229 18.7292 11.3552 18.8406C11.0875 18.9519 10.8004 19.0092 10.5105 19.0092C10.2205 19.0092 9.93342 18.9519 9.6657 18.8406C9.39798 18.7292 9.15491 18.5661 8.95046 18.3605L8.25046 17.6605C7.83855 17.2509 7.28136 17.0208 6.70046 17.0205H5.70046C5.11698 17.0205 4.55741 16.7887 4.14483 16.3761C3.73225 15.9635 3.50046 15.4039 3.50046 14.8205V13.8205C3.50013 13.2396 3.27006 12.6824 2.86046 12.2705L2.16046 11.5705C1.95486 11.366 1.7917 11.1229 1.68037 10.8552C1.56903 10.5875 1.51172 10.3004 1.51172 10.0105C1.51172 9.72051 1.56903 9.43342 1.68037 9.1657C1.7917 8.89798 1.95486 8.65491 2.16046 8.45046L2.86046 7.75046C3.27006 7.33855 3.50013 6.78136 3.50046 6.20046V5.20046Z" stroke="white" stroke-width="2" stroke-linecap="round" stroke-linejoin="round"/>
</svg>
