<svg width="31" height="28" viewBox="0 0 31 28" fill="none" xmlns="http://www.w3.org/2000/svg">
<path d="M4.51367 0.367188L8.32227 2.51562C7.08529 4.98958 6.25521 6.92643 5.83203 8.32617C5.40885 9.72591 5.08333 11.5326 4.85547 13.7461H9.20117V27.1738H0.363281V18.7754C0.363281 14.5762 0.639974 11.2884 1.19336 8.91211C1.7793 6.50326 2.88607 3.65495 4.51367 0.367188ZM26.2422 0.367188L30.0508 2.51562C28.8138 4.98958 27.9837 6.92643 27.5605 8.32617C27.1374 9.72591 26.8118 11.5326 26.584 13.7461H30.9297V27.1738H22.0918V18.7754C22.0918 14.5762 22.3685 11.2884 22.9219 8.91211C23.4753 6.50326 24.582 3.65495 26.2422 0.367188Z" fill="#070707"/>
</svg>
